PathFileType	3	(X/Y/Z)	D:\Jess\PFP\Labelled\PA09\20250730\SRRun01.trc
DataRate	CameraRate	NumFrames	NumMarkers	Units	OrigDataRate	OrigDataStartFrame	OrigNumFrames
250.0	250.0	4	37	mm	250.0	35625	2501
Frame#	Time	C7			T10			CLAV			LSHO			RSHO			LASIS			RASIS			LPSIS			RPSIS			LILCR			RILCR			LGTR			LTHI			LLTHI			LLEP			LMEP			LPSH			LLSH			LDSH			LLMAL			LMMAL			LTOE			L5TH			LHEE			RGTR			RTHI			RLTHI			RLEP			RMEP			RPSH			RLSH			RDSH			RLMAL			RMMAL			RTOE			R5TH			RHEE			
		X1	Y1	Z1	X2	Y2	Z2	X3	Y3	Z3	X4	Y4	Z4	X5	Y5	Z5	X6	Y6	Z6	X7	Y7	Z7	X8	Y8	Z8	X9	Y9	Z9	X10	Y10	Z10	X11	Y11	Z11	X12	Y12	Z12	X13	Y13	Z13	X14	Y14	Z14	X15	Y15	Z15	X16	Y16	Z16	X17	Y17	Z17	X18	Y18	Z18	X19	Y19	Z19	X20	Y20	Z20	X21	Y21	Z21	X22	Y22	Z22	X23	Y23	Z23	X24	Y24	Z24	X25	Y25	Z25	X26	Y26	Z26	X27	Y27	Z27	X28	Y28	Z28	X29	Y29	Z29	X30	Y30	Z30	X31	Y31	Z31	X32	Y32	Z32	X33	Y33	Z33	X34	Y34	Z34	X35	Y35	Z35	X36	Y36	Z36	X37	Y37	Z37	

626	142.496	1155.395293779333	1381.652956145728	-343.8021439416566	1027.751844875725	1158.735041605697	-334.3198973003012	1260.959226038683	1256.285147140899	-315.8081261262056	1228.20973459291	1346.909293308185	-494.6127249626332	1159.71917684517	1360.008264024683	-177.4291331371454	1137.362313892943	937.0715874332858	-430.9628465618002	1128.858098640583	934.8148418238565	-206.4269454322869	987.3257212367406	987.3495900107413	-327.9407482135495	985.6699120671273	984.8748750933056	-294.8872524567353	1093.15600429758	990.6698529210523	-464.3079359433709	1094.25430683363	998.9638172759168	-182.4408083644852	1090.183981835476	832.1013242278669	-477.9233253837028	1157.386135108072	663.0034658935028	-432.2391135538405	1056.581946002502	582.6192097375166	-457.8626304226738	1034.779319781832	452.964321274358	-440.6736472398268	nan	nan	nan	1055.855935697436	348.5344571262114	-389.5227970968793	941.7315920078332	298.6987173569653	-434.4834651979222	943.0041136737987	191.594044440493	-370.9269436133255	841.5721435075227	122.93724459189	-393.6612113363475	nan	nan	nan	975.3184521127658	61.39293340674444	-382.273901878895	947.5829402534305	48.59366122564123	-423.9920404956151	757.6291498032937	107.3790840920464	-348.0385856643487	1077.760419009293	823.2647860483872	-156.5712183326281	1226.897910864503	692.4095233861063	-229.6786650976111	1178.49421245182	605.1084244930515	-172.7275262767986	1193.176169368199	485.4184382596648	-195.7598858294836	nan	nan	nan	1181.93427597304	397.6281743747869	-249.4588478538882	1044.863315535461	389.1606955914979	-191.5618616749495	1008.065149340421	293.5950130068292	-241.997306659312	878.4072585761195	267.9824374270935	-215.2340250024357	nan	nan	nan	959.9201839888722	138.6359328861807	-195.9441193847943	919.6155657821467	141.6653949251779	-157.3284590576449	811.9846970851181	297.1311379935049	-266.7699884701316	
627	142.5	1155.123908110982	1384.929486994428	-343.8688463003288	1028.119276407842	1161.324505483259	-335.6838382935353	1260.800185598834	1260.005428033798	-314.0778955773205	1229.891655543095	1350.398431226468	-493.3850587016546	1157.336472132922	1363.382267900419	-177.4287080581117	1137.934750338808	939.2623482380192	-430.9875103985204	1128.500315518313	938.4606134018607	-206.8774995837863	987.6676855250183	990.4781960154406	-328.7493181808215	985.7781228142914	988.1661727125786	-295.5925946904941	1094.967339765637	993.2554464699701	-464.1248082600862	1093.804573632175	1002.551481013834	-182.9039504458871	1089.292448334532	834.0517739070959	-477.719051718734	1153.278511036784	663.7985684582922	-431.1794880091798	1050.918424566085	585.1411307577181	-457.7326950479951	1026.347862982483	455.8371711002835	-440.5897915893598	nan	nan	nan	1046.517462033257	350.9293265216699	-389.5387033372413	932.0915113642282	301.9169593793441	-434.4702801837118	933.0982583889507	194.3124591846406	-371.2903356978906	831.680924226796	125.9315270825542	-393.8722608960198	nan	nan	nan	964.0874937254157	61.30546867962007	-382.3098276577134	936.0010162214901	48.84844366841934	-423.9477488132869	747.5619369744456	111.5114816548883	-348.2363302852904	1078.179262121925	827.4966725744458	-156.3696724859099	1227.904021322154	698.1703299523944	-229.8477292071782	1180.841698534367	610.0915248961853	-172.5694988503743	1196.748375235882	490.1826239381841	-195.7628320192983	nan	nan	nan	1188.08717789662	401.779882258662	-249.8048199309896	1051.399309376769	388.0285297873453	-191.654348838545	1017.789294007521	291.6243975430187	-242.7604391137337	889.0582319889322	260.9380230409062	-215.9720327207416	nan	nan	nan	975.7877067454228	134.8839628352624	-197.7747495008713	935.2516194518564	135.7497339725859	-159.1088612775181	821.4610227691632	287.8748259995466	-267.1802718822703	
628	142.504	1154.887757275956	1388.214929670766	-343.9249923887315	1028.543111623533	1163.914777904401	-337.0251230864707	1260.655886204505	1263.771887637498	-312.3710977825184	1231.508395175662	1353.905592940052	-492.1408102105202	1155.052352406594	1366.746022994689	-177.4459621651727	1138.528076580637	941.4071432751209	-430.9874754143411	1128.184154897488	942.1287389181822	-207.3203559934136	988.0745569238327	993.6495559526938	-329.5464676980235	985.9540280580442	991.5048584282564	-296.2895525408456	1096.80333052726	995.8728801701634	-463.9138617051599	1093.402184755317	1006.151403311595	-183.343567671076	1088.495353792054	836.0599910032053	-477.5001903949963	1149.255429521672	664.7157312348072	-430.0846696580405	1045.431538848911	587.7781051410963	-457.654340858769	1018.071207823913	458.8890217119589	-440.5603557981068	nan	nan	nan	1037.332461469447	353.5223492835057	-389.6440526651105	922.6069562404161	305.3181588339648	-434.5118616480647	923.3962388972465	197.2096994578189	-371.7443957631024	822.0217253763142	129.0866746306038	-394.1605791832937	nan	nan	nan	952.9381580084104	61.24253120141309	-382.3810109620113	924.4957670995699	49.1197634618968	-423.9348323238065	737.7598379398341	115.9396655050246	-348.4879860386652	1078.621158162442	831.7899650347723	-156.1559716809494	1228.781629402824	703.9181825594497	-230.0823462283241	1183.053300822038	615.0911188745122	-172.4095298561714	1200.0154578549	494.8587804497727	-195.7453393218385	nan	nan	nan	1193.991582552817	405.8989052789784	-250.1322329299513	1057.869090330081	386.7788314659778	-191.7718817130236	1027.569886157604	289.6202520870131	-243.5436342107473	899.9718533883217	253.8316272296615	-216.8006226242664	nan	nan	nan	991.824550080595	131.3292180214809	-199.5474843902009	951.1399560248682	130.0363867353907	-160.8691128168885	831.3004117508405	278.4408028177867	-267.7544795946722	
629	142.508	1154.686074163094	1391.494558203935	-343.9733519390278	1029.019191721985	1166.496125183401	-338.3356828031192	1260.523032147745	1267.567299514313	-310.6887589890139	1233.066104598309	1357.410721241586	-490.8831189940225	1152.865497340514	1370.090482260668	-177.4801828809339	1139.1397809324	943.4935095096251	-430.962357193855	1127.906406715115	945.7994700543051	-207.7506071229651	988.5423478579183	996.8524123960244	-330.3332162761452	986.1946452749041	994.8790673174635	-296.9809401576629	1098.652965303684	998.5114052432534	-463.6744033769194	1093.042113900369	1009.74984617929	-183.7551245480484	1087.792658674469	838.1124559280655	-477.2721199866783	1145.324353420542	665.7417551093502	-428.9754546709598	1040.130093243225	590.5156110541537	-457.6326354852727	1009.96291325648	462.1036674043698	-440.5904291449893	nan	nan	nan	1028.317612251851	356.2975115132303	-389.8471199160023	913.2938695910174	308.8848176700944	-434.613687256816	913.9146792137007	200.2694963810553	-372.2951228185345	812.6047674450176	132.3878364863393	-394.5320861008873	nan	nan	nan	941.8791184356938	61.20356608353882	-382.493615161488	913.0750090206951	49.40855777368101	-423.9589550916774	728.2405123803812	120.6540490499307	-348.7999676192915	1079.069247493332	836.1269401751279	-155.929929588879	1229.537716800885	709.6317310152197	-230.375341820126	1185.125827629852	620.087298193315	-172.2525945942181	1202.978515923094	499.4197450765246	-195.71030041949	nan	nan	nan	1199.642466387392	409.9623305662421	-250.4370611001685	1064.281213771467	385.4100149822372	-191.9140152519382	1037.410421596773	287.5875658913644	-244.3401058063455	911.1582703854892	246.6855859468611	-217.7100605679988	nan	nan	nan	1008.015713825286	127.9869847870693	-201.2534083084377	967.2695469808973	124.5481111813536	-162.5983520687763	841.5213580643301	268.8625380433315	-268.4816449687635	
